<mxfile host="Electron" modified="2023-11-13T17:58:53.744Z" agent="Mozilla/5.0 (Windows NT 10.0; Win64; x64) AppleWebKit/537.36 (KHTML, like Gecko) draw.io/22.0.3 Chrome/114.0.5735.289 Electron/25.8.4 Safari/537.36" etag="GPOz9MQIgsuZpZ3RTx5V" version="22.0.3" type="device">
  <diagram name="Sayfa -1" id="DT2Ak7L__WjH7Ivzx7qH">
    <mxGraphModel dx="439" dy="2622" grid="1" gridSize="10" guides="1" tooltips="1" connect="1" arrows="1" fold="1" page="1" pageScale="1" pageWidth="827" pageHeight="1169" math="0" shadow="0">
      <root>
        <mxCell id="0" />
        <mxCell id="1" parent="0" />
        <mxCell id="m5MND83g-9uNj51PbxTe-21" style="edgeStyle=none;rounded=0;orthogonalLoop=1;jettySize=auto;html=1;entryX=0.895;entryY=0.625;entryDx=0;entryDy=0;entryPerimeter=0;fontColor=#000000;endArrow=none;endFill=0;" parent="1" source="HzyGzkPpvqnC_VXoBj8U-1" target="fYyWRjuINCl5K32tc6yg-2" edge="1">
          <mxGeometry relative="1" as="geometry" />
        </mxCell>
        <mxCell id="HzyGzkPpvqnC_VXoBj8U-1" value="&lt;p style=&quot;margin:0px;margin-top:4px;text-align:center;&quot;&gt;&lt;b&gt;&lt;i&gt;User&lt;/i&gt;&lt;/b&gt;&lt;/p&gt;&lt;hr size=&quot;1&quot;&gt;&lt;p style=&quot;margin:0px;margin-left:4px;&quot;&gt;- firstName: String&lt;/p&gt;&lt;p style=&quot;margin:0px;margin-left:4px;&quot;&gt;- secondName: String&lt;/p&gt;&lt;p style=&quot;margin:0px;margin-left:4px;&quot;&gt;-&amp;nbsp;&lt;span style=&quot;background-color: initial;&quot;&gt;lastName: String&lt;/span&gt;&lt;/p&gt;&lt;p style=&quot;border-color: var(--border-color); margin: 0px 0px 0px 4px;&quot;&gt;- birthDate: Date&lt;/p&gt;&lt;p style=&quot;margin:0px;margin-left:4px;&quot;&gt;- address: String&lt;/p&gt;&lt;p style=&quot;margin:0px;margin-left:4px;&quot;&gt;- ssn: String&lt;/p&gt;&lt;p style=&quot;margin:0px;margin-left:4px;&quot;&gt;- email: String&lt;/p&gt;&lt;p style=&quot;margin:0px;margin-left:4px;&quot;&gt;- username: String&lt;/p&gt;&lt;p style=&quot;margin:0px;margin-left:4px;&quot;&gt;- password: String&lt;/p&gt;&lt;hr size=&quot;1&quot;&gt;&lt;p style=&quot;margin:0px;margin-left:4px;&quot;&gt;+ accessors()/mutators()&lt;/p&gt;" style="verticalAlign=top;align=left;overflow=fill;fontSize=12;fontFamily=Helvetica;html=1;whiteSpace=wrap;" parent="1" vertex="1">
          <mxGeometry x="770" y="-1140" width="160" height="200" as="geometry" />
        </mxCell>
        <mxCell id="HzyGzkPpvqnC_VXoBj8U-2" value="&lt;p style=&quot;margin:0px;margin-top:4px;text-align:center;&quot;&gt;&lt;b&gt;Student&lt;/b&gt;&lt;/p&gt;&lt;hr size=&quot;1&quot;&gt;&lt;p style=&quot;margin:0px;margin-left:4px;&quot;&gt;- transcript: Transcript&lt;/p&gt;&lt;p style=&quot;margin:0px;margin-left:4px;&quot;&gt;- studentID: String&lt;/p&gt;&lt;p style=&quot;margin:0px;margin-left:4px;&quot;&gt;- advisor: Advisor&lt;/p&gt;&lt;p style=&quot;margin:0px;margin-left:4px;&quot;&gt;- registerdCourses: ArrayList&amp;lt;Course&amp;gt;&lt;/p&gt;&lt;hr size=&quot;1&quot;&gt;&lt;p style=&quot;margin:0px;margin-left:4px;&quot;&gt;+ printTranscriptInformation(Transcript t): void&lt;/p&gt;&lt;p style=&quot;margin:0px;margin-left:4px;&quot;&gt;&lt;span style=&quot;background-color: initial;&quot;&gt;+ registerToCourse(Course course): boolean&lt;/span&gt;&lt;/p&gt;&lt;p style=&quot;margin:0px;margin-left:4px;&quot;&gt;&lt;span style=&quot;background-color: initial;&quot;&gt;+ accessors()/mutators()&lt;/span&gt;&lt;br&gt;&lt;/p&gt;" style="verticalAlign=top;align=left;overflow=fill;fontSize=12;fontFamily=Helvetica;html=1;whiteSpace=wrap;" parent="1" vertex="1">
          <mxGeometry x="510" y="-881" width="290" height="151" as="geometry" />
        </mxCell>
        <mxCell id="m5MND83g-9uNj51PbxTe-7" style="edgeStyle=none;rounded=0;orthogonalLoop=1;jettySize=auto;html=1;entryX=0.5;entryY=1;entryDx=0;entryDy=0;endArrow=block;endFill=0;exitX=0.304;exitY=0.018;exitDx=0;exitDy=0;exitPerimeter=0;strokeWidth=1;endSize=12;" parent="1" source="HzyGzkPpvqnC_VXoBj8U-3" target="HzyGzkPpvqnC_VXoBj8U-38" edge="1">
          <mxGeometry relative="1" as="geometry">
            <mxPoint x="1280" y="-600" as="sourcePoint" />
            <Array as="points">
              <mxPoint x="1010" y="-568" />
            </Array>
          </mxGeometry>
        </mxCell>
        <mxCell id="m5MND83g-9uNj51PbxTe-11" style="edgeStyle=none;rounded=0;orthogonalLoop=1;jettySize=auto;html=1;endArrow=none;endFill=0;exitX=0;exitY=0.5;exitDx=0;exitDy=0;" parent="1" source="HzyGzkPpvqnC_VXoBj8U-3" edge="1">
          <mxGeometry relative="1" as="geometry">
            <mxPoint x="764" y="-730" as="targetPoint" />
            <Array as="points">
              <mxPoint x="764" y="-520" />
            </Array>
          </mxGeometry>
        </mxCell>
        <mxCell id="HzyGzkPpvqnC_VXoBj8U-3" value="&lt;p style=&quot;margin:0px;margin-top:4px;text-align:center;&quot;&gt;&lt;b&gt;Advisor&lt;/b&gt;&lt;/p&gt;&lt;hr size=&quot;1&quot;&gt;&lt;p style=&quot;margin:0px;margin-left:4px;&quot;&gt;- registrations: ArrayList&amp;lt;Course&amp;gt;&lt;/p&gt;&lt;hr size=&quot;1&quot;&gt;&lt;p style=&quot;margin:0px;margin-left:4px;&quot;&gt;+ registrationApproval(ArrayList&amp;lt;Course&amp;gt; course): void&lt;/p&gt;&lt;p style=&quot;margin:0px;margin-left:4px;&quot;&gt;+ accessors()/mutators()&lt;br&gt;&lt;/p&gt;" style="verticalAlign=top;align=left;overflow=fill;fontSize=12;fontFamily=Helvetica;html=1;whiteSpace=wrap;" parent="1" vertex="1">
          <mxGeometry x="890" y="-570" width="400" height="100" as="geometry" />
        </mxCell>
        <mxCell id="m5MND83g-9uNj51PbxTe-15" style="edgeStyle=none;rounded=0;orthogonalLoop=1;jettySize=auto;html=1;endArrow=none;endFill=0;" parent="1" source="HzyGzkPpvqnC_VXoBj8U-6" edge="1">
          <mxGeometry relative="1" as="geometry">
            <mxPoint x="510" y="-825" as="targetPoint" />
          </mxGeometry>
        </mxCell>
        <mxCell id="HzyGzkPpvqnC_VXoBj8U-6" value="&lt;p style=&quot;margin:0px;margin-top:4px;text-align:center;&quot;&gt;&lt;b&gt;Course&lt;/b&gt;&lt;/p&gt;&lt;hr size=&quot;1&quot;&gt;&lt;p style=&quot;margin:0px;margin-left:4px;&quot;&gt;- student: Student&lt;/p&gt;&lt;p style=&quot;margin:0px;margin-left:4px;&quot;&gt;- advisor: Advisor&lt;/p&gt;&lt;p style=&quot;margin:0px;margin-left:4px;&quot;&gt;- courseName: String&lt;/p&gt;&lt;p style=&quot;margin:0px;margin-left:4px;&quot;&gt;- courseCode: String&lt;/p&gt;&lt;p style=&quot;margin:0px;margin-left:4px;&quot;&gt;- courseLecturer: Lecturer&lt;/p&gt;&lt;p style=&quot;margin:0px;margin-left:4px;&quot;&gt;- credits: int&lt;/p&gt;&lt;p style=&quot;margin:0px;margin-left:4px;&quot;&gt;- prerequisite: Course&lt;/p&gt;&lt;p style=&quot;margin:0px;margin-left:4px;&quot;&gt;- prerequisiteCompleted: boolean&lt;/p&gt;&lt;p style=&quot;margin:0px;margin-left:4px;&quot;&gt;- grade: Grade&lt;/p&gt;&lt;p style=&quot;margin:0px;margin-left:4px;&quot;&gt;- completed: boolean&lt;/p&gt;&lt;hr size=&quot;1&quot;&gt;&lt;p style=&quot;margin:0px;margin-left:4px;&quot;&gt;+ accessors()/mutators()&lt;/p&gt;" style="verticalAlign=top;align=left;overflow=fill;fontSize=12;fontFamily=Helvetica;html=1;whiteSpace=wrap;" parent="1" vertex="1">
          <mxGeometry x="20" y="-930" width="393" height="210" as="geometry" />
        </mxCell>
        <mxCell id="HzyGzkPpvqnC_VXoBj8U-11" value="&lt;p style=&quot;margin:0px;margin-top:4px;text-align:center;&quot;&gt;&lt;b&gt;Transcript&lt;/b&gt;&lt;/p&gt;&lt;hr size=&quot;1&quot;&gt;&lt;p style=&quot;margin:0px;margin-left:4px;&quot;&gt;- courses: ArrayList&amp;lt;&lt;b style=&quot;border-color: var(--border-color); text-align: center;&quot;&gt;Course&lt;/b&gt;&lt;span style=&quot;background-color: initial;&quot;&gt;&amp;gt;&lt;/span&gt;&lt;br&gt;&lt;/p&gt;&lt;p style=&quot;margin:0px;margin-left:4px;&quot;&gt;&lt;span style=&quot;background-color: initial;&quot;&gt;- GPA: double&lt;/span&gt;&lt;/p&gt;&lt;hr size=&quot;1&quot;&gt;&lt;p style=&quot;margin:0px;margin-left:4px;&quot;&gt;+ calculateGPA(ArrayList&amp;lt;&lt;b style=&quot;border-color: var(--border-color); text-align: center;&quot;&gt;Course&lt;/b&gt;&amp;gt; c&lt;b style=&quot;border-color: var(--border-color); text-align: center;&quot;&gt;ourse&lt;/b&gt;): double&lt;/p&gt;&lt;p style=&quot;margin:0px;margin-left:4px;&quot;&gt;+ accessors()/mutators()&lt;br&gt;&lt;/p&gt;" style="verticalAlign=top;align=left;overflow=fill;fontSize=12;fontFamily=Helvetica;html=1;whiteSpace=wrap;" parent="1" vertex="1">
          <mxGeometry x="190" y="-660" width="460" height="120" as="geometry" />
        </mxCell>
        <mxCell id="HzyGzkPpvqnC_VXoBj8U-14" value="&lt;p style=&quot;margin:0px;margin-top:4px;text-align:center;&quot;&gt;&lt;b&gt;Grade&lt;/b&gt;&lt;/p&gt;&lt;hr size=&quot;1&quot;&gt;&lt;p style=&quot;margin:0px;margin-left:4px;&quot;&gt;- outOfHundred: double&lt;/p&gt;&lt;p style=&quot;margin:0px;margin-left:4px;&quot;&gt;- gano: double&lt;/p&gt;&lt;p style=&quot;margin:0px;margin-left:4px;&quot;&gt;- letterGrade: String&lt;/p&gt;&lt;hr size=&quot;1&quot;&gt;&lt;p style=&quot;margin:0px;margin-left:4px;&quot;&gt;+ convertHundredToGano(double hundredNot): double&lt;/p&gt;&lt;p style=&quot;margin:0px;margin-left:4px;&quot;&gt;+ convertHundredToLetterGrade(double hundred): String&lt;/p&gt;&lt;p style=&quot;margin:0px;margin-left:4px;&quot;&gt;+ accessors()/mutators()&lt;br&gt;&lt;/p&gt;" style="verticalAlign=top;align=left;overflow=fill;fontSize=12;fontFamily=Helvetica;html=1;whiteSpace=wrap;" parent="1" vertex="1">
          <mxGeometry x="540" y="-450" width="350" height="140" as="geometry" />
        </mxCell>
        <mxCell id="m5MND83g-9uNj51PbxTe-2" style="edgeStyle=none;rounded=0;orthogonalLoop=1;jettySize=auto;html=1;exitX=0.5;exitY=0;exitDx=0;exitDy=0;endArrow=none;endFill=0;" parent="1" source="HzyGzkPpvqnC_VXoBj8U-35" edge="1">
          <mxGeometry relative="1" as="geometry">
            <mxPoint x="850" y="-900" as="targetPoint" />
            <Array as="points">
              <mxPoint x="1100" y="-900" />
            </Array>
          </mxGeometry>
        </mxCell>
        <mxCell id="HzyGzkPpvqnC_VXoBj8U-35" value="&lt;p style=&quot;margin:0px;margin-top:4px;text-align:center;&quot;&gt;&lt;b&gt;&lt;i&gt;Staff&lt;/i&gt;&lt;/b&gt;&lt;/p&gt;&lt;hr size=&quot;1&quot;&gt;&lt;p style=&quot;margin:0px;margin-left:4px;&quot;&gt;- staffID: String&lt;/p&gt;&lt;p style=&quot;margin:0px;margin-left:4px;&quot;&gt;- department: String&lt;/p&gt;&lt;hr size=&quot;1&quot;&gt;&lt;p style=&quot;margin:0px;margin-left:4px;&quot;&gt;+ accessors()/mutators()&lt;br&gt;&lt;/p&gt;" style="verticalAlign=top;align=left;overflow=fill;fontSize=12;fontFamily=Helvetica;html=1;whiteSpace=wrap;" parent="1" vertex="1">
          <mxGeometry x="1020" y="-880" width="160" height="100" as="geometry" />
        </mxCell>
        <mxCell id="m5MND83g-9uNj51PbxTe-10" style="edgeStyle=none;rounded=0;orthogonalLoop=1;jettySize=auto;html=1;endArrow=none;endFill=0;exitX=0.25;exitY=0;exitDx=0;exitDy=0;" parent="1" source="HzyGzkPpvqnC_VXoBj8U-38" edge="1">
          <mxGeometry relative="1" as="geometry">
            <Array as="points">
              <mxPoint x="970" y="-800" />
            </Array>
            <mxPoint x="800" y="-800" as="targetPoint" />
          </mxGeometry>
        </mxCell>
        <mxCell id="HzyGzkPpvqnC_VXoBj8U-38" value="&lt;p style=&quot;margin:0px;margin-top:4px;text-align:center;&quot;&gt;&lt;b&gt;Lecturer&lt;/b&gt;&lt;/p&gt;&lt;hr size=&quot;1&quot;&gt;&lt;p style=&quot;margin:0px;margin-left:4px;&quot;&gt;- profession: String&lt;/p&gt;&lt;hr size=&quot;1&quot;&gt;&lt;p style=&quot;margin:0px;margin-left:4px;&quot;&gt;+ accessors()/mutators()&lt;br&gt;&lt;/p&gt;" style="verticalAlign=top;align=left;overflow=fill;fontSize=12;fontFamily=Helvetica;html=1;whiteSpace=wrap;" parent="1" vertex="1">
          <mxGeometry x="930" y="-720" width="160" height="90" as="geometry" />
        </mxCell>
        <mxCell id="HzyGzkPpvqnC_VXoBj8U-47" value="&lt;p style=&quot;margin:0px;margin-top:4px;text-align:center;&quot;&gt;&lt;b&gt;LoginSystem&lt;/b&gt;&lt;/p&gt;&lt;hr size=&quot;1&quot;&gt;&lt;p style=&quot;margin:0px;margin-left:4px;&quot;&gt;- allData: JSONFileManager&lt;/p&gt;&lt;hr size=&quot;1&quot;&gt;&lt;p style=&quot;margin:0px;margin-left:4px;&quot;&gt;+ accessors()/mutators()&lt;br&gt;&lt;/p&gt;&lt;p style=&quot;margin:0px;margin-left:4px;&quot;&gt;+ loginStudent(JSONFileManager): boolean&lt;/p&gt;&lt;p style=&quot;border-color: var(--border-color); margin: 0px 0px 0px 4px;&quot;&gt;+ loginStudentAffairsStaff(JSONFileManager): boolean&lt;/p&gt;&lt;div&gt;&lt;p style=&quot;border-color: var(--border-color); margin: 0px 0px 0px 4px;&quot;&gt;+ loginLecturer(JSONFileManager): boolean&lt;/p&gt;&lt;div style=&quot;border-color: var(--border-color);&quot;&gt;&lt;p style=&quot;border-color: var(--border-color); margin: 0px 0px 0px 4px;&quot;&gt;+ loginAdvisor(JSONFileManager): boolean&lt;/p&gt;&lt;/div&gt;&lt;/div&gt;&lt;p style=&quot;margin:0px;margin-left:4px;&quot;&gt;+ getAllDataFromJSON(): void&lt;br&gt;&lt;/p&gt;&lt;p style=&quot;margin:0px;margin-left:4px;&quot;&gt;&lt;br&gt;&lt;/p&gt;" style="verticalAlign=top;align=left;overflow=fill;fontSize=12;fontFamily=Helvetica;html=1;whiteSpace=wrap;" parent="1" vertex="1">
          <mxGeometry x="370" y="-1319" width="386" height="149" as="geometry" />
        </mxCell>
        <mxCell id="m5MND83g-9uNj51PbxTe-13" style="edgeStyle=none;rounded=0;orthogonalLoop=1;jettySize=auto;html=1;endArrow=none;endFill=0;exitX=0.5;exitY=0;exitDx=0;exitDy=0;" parent="1" source="HzyGzkPpvqnC_VXoBj8U-51" edge="1">
          <mxGeometry relative="1" as="geometry">
            <mxPoint x="1100" y="-750" as="targetPoint" />
            <Array as="points">
              <mxPoint x="1310" y="-750" />
            </Array>
          </mxGeometry>
        </mxCell>
        <mxCell id="HzyGzkPpvqnC_VXoBj8U-51" value="&lt;p style=&quot;margin:0px;margin-top:4px;text-align:center;&quot;&gt;StudentAffairsStaff&amp;nbsp;&lt;br&gt;&lt;/p&gt;&lt;hr size=&quot;1&quot;&gt;&lt;p style=&quot;margin:0px;margin-left:4px;&quot;&gt;- workingField: String&lt;/p&gt;&lt;hr size=&quot;1&quot;&gt;&lt;p style=&quot;margin:0px;margin-left:4px;&quot;&gt;+ accessors()/mutators()&lt;br&gt;&lt;/p&gt;" style="verticalAlign=top;align=left;overflow=fill;fontSize=12;fontFamily=Helvetica;html=1;whiteSpace=wrap;" parent="1" vertex="1">
          <mxGeometry x="1230" y="-720" width="160" height="90" as="geometry" />
        </mxCell>
        <mxCell id="fYyWRjuINCl5K32tc6yg-2" value="&lt;p style=&quot;margin:0px;margin-top:4px;text-align:center;&quot;&gt;&lt;b&gt;Main&lt;/b&gt;&lt;/p&gt;&lt;hr size=&quot;1&quot;&gt;&lt;p style=&quot;margin:0px;margin-left:4px;&quot;&gt;&lt;br&gt;&lt;/p&gt;&lt;hr size=&quot;1&quot;&gt;&lt;p style=&quot;margin:0px;margin-left:4px;&quot;&gt;+ startCodeLoginSystem(): void&lt;/p&gt;" style="verticalAlign=top;align=left;overflow=fill;fontSize=12;fontFamily=Helvetica;html=1;whiteSpace=wrap;" parent="1" vertex="1">
          <mxGeometry x="460" y="-1090" width="190" height="80" as="geometry" />
        </mxCell>
        <mxCell id="fYyWRjuINCl5K32tc6yg-4" value="&lt;p style=&quot;margin:0px;margin-top:4px;text-align:center;&quot;&gt;&lt;b&gt;JSONFileManager&lt;/b&gt;&lt;/p&gt;&lt;hr size=&quot;1&quot;&gt;&lt;p style=&quot;margin:0px;margin-left:4px;&quot;&gt;- students: ArrayList&amp;lt;Student&amp;gt;&lt;/p&gt;&lt;p style=&quot;margin:0px;margin-left:4px;&quot;&gt;- studentAffairsStaff: ArrayList&amp;lt;StudentAffairsStaff&amp;gt;&lt;/p&gt;&lt;p style=&quot;margin:0px;margin-left:4px;&quot;&gt;- Lecturer: ArrayList&amp;lt;Lecturer&amp;gt;&lt;/p&gt;&lt;p style=&quot;margin:0px;margin-left:4px;&quot;&gt;- Advisor: ArrayList&amp;lt;Advisor&amp;gt;&lt;/p&gt;&lt;hr size=&quot;1&quot;&gt;&lt;p style=&quot;margin:0px;margin-left:4px;&quot;&gt;+ getAllData(): void&lt;/p&gt;" style="verticalAlign=top;align=left;overflow=fill;fontSize=12;fontFamily=Helvetica;html=1;whiteSpace=wrap;" parent="1" vertex="1">
          <mxGeometry x="900" y="-1309" width="350" height="130" as="geometry" />
        </mxCell>
        <mxCell id="m5MND83g-9uNj51PbxTe-1" value="" style="endArrow=block;endFill=0;endSize=12;html=1;rounded=0;entryX=0.5;entryY=1;entryDx=0;entryDy=0;exitX=0.5;exitY=0;exitDx=0;exitDy=0;" parent="1" source="HzyGzkPpvqnC_VXoBj8U-2" target="HzyGzkPpvqnC_VXoBj8U-1" edge="1">
          <mxGeometry width="160" relative="1" as="geometry">
            <mxPoint x="800" y="-890" as="sourcePoint" />
            <mxPoint x="960" y="-890" as="targetPoint" />
            <Array as="points">
              <mxPoint x="655" y="-900" />
              <mxPoint x="850" y="-900" />
            </Array>
          </mxGeometry>
        </mxCell>
        <mxCell id="m5MND83g-9uNj51PbxTe-8" value="" style="endArrow=diamondThin;endFill=1;endSize=24;html=1;rounded=0;" parent="1" edge="1">
          <mxGeometry width="160" relative="1" as="geometry">
            <mxPoint x="552" y="-660" as="sourcePoint" />
            <mxPoint x="552" y="-730" as="targetPoint" />
            <Array as="points" />
          </mxGeometry>
        </mxCell>
        <mxCell id="m5MND83g-9uNj51PbxTe-12" value="" style="endArrow=block;endFill=0;endSize=12;html=1;rounded=0;entryX=0.5;entryY=1;entryDx=0;entryDy=0;" parent="1" target="HzyGzkPpvqnC_VXoBj8U-35" edge="1">
          <mxGeometry width="160" relative="1" as="geometry">
            <mxPoint x="1000" y="-720" as="sourcePoint" />
            <mxPoint x="830" y="-790" as="targetPoint" />
            <Array as="points">
              <mxPoint x="1000" y="-750" />
              <mxPoint x="1100" y="-750" />
            </Array>
          </mxGeometry>
        </mxCell>
        <mxCell id="m5MND83g-9uNj51PbxTe-14" value="" style="endArrow=diamondThin;endFill=1;endSize=24;html=1;rounded=0;" parent="1" edge="1">
          <mxGeometry width="160" relative="1" as="geometry">
            <mxPoint x="700" y="-450" as="sourcePoint" />
            <mxPoint x="700" y="-730" as="targetPoint" />
          </mxGeometry>
        </mxCell>
        <mxCell id="m5MND83g-9uNj51PbxTe-16" value="" style="endArrow=diamondThin;endFill=0;endSize=24;html=1;rounded=0;" parent="1" edge="1">
          <mxGeometry width="160" relative="1" as="geometry">
            <mxPoint x="562" y="-450" as="sourcePoint" />
            <mxPoint x="562" y="-540" as="targetPoint" />
          </mxGeometry>
        </mxCell>
        <mxCell id="m5MND83g-9uNj51PbxTe-17" value="" style="endArrow=diamondThin;endFill=0;endSize=24;html=1;rounded=0;exitX=0.764;exitY=0.997;exitDx=0;exitDy=0;exitPerimeter=0;" parent="1" source="HzyGzkPpvqnC_VXoBj8U-6" edge="1">
          <mxGeometry width="160" relative="1" as="geometry">
            <mxPoint x="550" y="-750" as="sourcePoint" />
            <mxPoint x="320" y="-660" as="targetPoint" />
          </mxGeometry>
        </mxCell>
        <mxCell id="m5MND83g-9uNj51PbxTe-18" value="Use" style="endArrow=open;endSize=12;dashed=1;html=1;rounded=0;entryX=1;entryY=0.5;entryDx=0;entryDy=0;exitX=0;exitY=0.5;exitDx=0;exitDy=0;" parent="1" source="fYyWRjuINCl5K32tc6yg-4" target="HzyGzkPpvqnC_VXoBj8U-47" edge="1">
          <mxGeometry x="-0.0654" width="160" relative="1" as="geometry">
            <mxPoint x="630" y="-870" as="sourcePoint" />
            <mxPoint x="790" y="-870" as="targetPoint" />
            <mxPoint as="offset" />
          </mxGeometry>
        </mxCell>
        <mxCell id="m5MND83g-9uNj51PbxTe-20" value="Use" style="endArrow=open;endSize=12;dashed=1;html=1;rounded=0;entryX=0.5;entryY=0;entryDx=0;entryDy=0;fontColor=#000000;textOpacity=0;exitX=0.472;exitY=1.005;exitDx=0;exitDy=0;exitPerimeter=0;" parent="1" source="HzyGzkPpvqnC_VXoBj8U-47" target="fYyWRjuINCl5K32tc6yg-2" edge="1">
          <mxGeometry x="-0.7483" y="-159" width="160" relative="1" as="geometry">
            <mxPoint x="831" y="-1140" as="sourcePoint" />
            <mxPoint x="1150" y="-1110" as="targetPoint" />
            <mxPoint as="offset" />
          </mxGeometry>
        </mxCell>
        <mxCell id="LNK8x5AZbZx1LDMAvUW--1" value="1..*" style="text;html=1;align=center;verticalAlign=middle;resizable=0;points=[];autosize=1;strokeColor=none;fillColor=none;" parent="1" vertex="1">
          <mxGeometry x="800" y="-820" width="30" height="20" as="geometry" />
        </mxCell>
        <mxCell id="LNK8x5AZbZx1LDMAvUW--3" value="learns from" style="text;html=1;align=center;verticalAlign=middle;resizable=0;points=[];autosize=1;strokeColor=none;fillColor=none;rotation=90;" parent="1" vertex="1">
          <mxGeometry x="940" y="-770" width="80" height="20" as="geometry" />
        </mxCell>
        <mxCell id="LNK8x5AZbZx1LDMAvUW--4" value="1..*" style="text;html=1;align=center;verticalAlign=middle;resizable=0;points=[];autosize=1;strokeColor=none;fillColor=none;rotation=0;" parent="1" vertex="1">
          <mxGeometry x="940" y="-740" width="30" height="20" as="geometry" />
        </mxCell>
        <mxCell id="LNK8x5AZbZx1LDMAvUW--5" value="teaches&lt;br&gt;" style="text;html=1;align=center;verticalAlign=middle;resizable=0;points=[];autosize=1;strokeColor=none;fillColor=none;rotation=0;" parent="1" vertex="1">
          <mxGeometry x="800" y="-790" width="60" height="20" as="geometry" />
        </mxCell>
        <mxCell id="LNK8x5AZbZx1LDMAvUW--6" value="1..*" style="text;html=1;align=center;verticalAlign=middle;resizable=0;points=[];autosize=1;strokeColor=none;fillColor=none;" parent="1" vertex="1">
          <mxGeometry x="480" y="-850" width="30" height="20" as="geometry" />
        </mxCell>
        <mxCell id="LNK8x5AZbZx1LDMAvUW--7" value="has" style="text;html=1;align=center;verticalAlign=middle;resizable=0;points=[];autosize=1;strokeColor=none;fillColor=none;" parent="1" vertex="1">
          <mxGeometry x="415" y="-850" width="30" height="20" as="geometry" />
        </mxCell>
        <mxCell id="LNK8x5AZbZx1LDMAvUW--8" value="1..*" style="text;html=1;align=center;verticalAlign=middle;resizable=0;points=[];autosize=1;strokeColor=none;fillColor=none;rotation=90;" parent="1" vertex="1">
          <mxGeometry x="760" y="-720" width="30" height="20" as="geometry" />
        </mxCell>
        <mxCell id="LNK8x5AZbZx1LDMAvUW--9" value="has" style="text;html=1;align=center;verticalAlign=middle;resizable=0;points=[];autosize=1;strokeColor=none;fillColor=none;" parent="1" vertex="1">
          <mxGeometry x="850" y="-540" width="30" height="20" as="geometry" />
        </mxCell>
      </root>
    </mxGraphModel>
  </diagram>
</mxfile>
